<!-- Oqool AI Brain Network Logo -->
<svg width="32" height="32" viewBox="0 0 32 32" xmlns="http://www.w3.org/2000/svg">
  <rect width="32" height="32" rx="8" fill="#1E40AF"/>
  
  <!-- Brain Icon Center -->
  <circle cx="16" cy="16" r="2" fill="white"/>
  
  <!-- الدائرة الخارجية -->
  <line x1="16" y1="16" x2="16" y2="6" stroke="white" stroke-width="1" stroke-linecap="round"/>
  <line x1="16" y1="16" x2="22" y2="9" stroke="white" stroke-width="1" stroke-linecap="round"/>
  <line x1="16" y1="16" x2="25" y2="13" stroke="white" stroke-width="1" stroke-linecap="round"/>
  <line x1="16" y1="16" x2="25" y2="19" stroke="white" stroke-width="1" stroke-linecap="round"/>
  <line x1="16" y1="16" x2="22" y2="23" stroke="white" stroke-width="1" stroke-linecap="round"/>
  <line x1="16" y1="16" x2="16" y2="26" stroke="white" stroke-width="1" stroke-linecap="round"/>
  <line x1="16" y1="16" x2="10" y2="23" stroke="white" stroke-width="1" stroke-linecap="round"/>
  <line x1="16" y1="16" x2="7" y2="19" stroke="white" stroke-width="1" stroke-linecap="round"/>
  <line x1="16" y1="16" x2="7" y2="13" stroke="white" stroke-width="1" stroke-linecap="round"/>
  <line x1="16" y1="16" x2="10" y2="9" stroke="white" stroke-width="1" stroke-linecap="round"/>
  
  <!-- النقاط الخارجية -->
  <circle cx="16" cy="6" r="1.5" fill="#60A5FA"/>
  <circle cx="22" cy="9" r="1.5" fill="#60A5FA"/>
  <circle cx="25" cy="13" r="1.5" fill="#60A5FA"/>
  <circle cx="25" cy="19" r="1.5" fill="#60A5FA"/>
  <circle cx="22" cy="23" r="1.5" fill="#60A5FA"/>
  <circle cx="16" cy="26" r="1.5" fill="#60A5FA"/>
  <circle cx="10" cy="23" r="1.5" fill="#60A5FA"/>
  <circle cx="7" cy="19" r="1.5" fill="#60A5FA"/>
  <circle cx="7" cy="13" r="1.5" fill="#60A5FA"/>
  <circle cx="10" cy="9" r="1.5" fill="#60A5FA"/>
</svg>